<?xml version="1.0" encoding="UTF-8"?>
<svg width="15px" height="15px" viewBox="0 0 15 15" version="1.1" xmlns="http://www.w3.org/2000/svg" xmlns:xlink="http://www.w3.org/1999/xlink">
    <!-- Generator: sketchtool 48.2 (47327) - http://www.bohemiancoding.com/sketch -->
    <title>8EDED133-9491-4EA2-9E64-FD7E56F9FC05</title>
    <desc>Created with sketchtool.</desc>
    <defs></defs>
    <g id="Layout-7" stroke="none" stroke-width="1" fill="none" fill-rule="evenodd" transform="translate(-949.000000, -36.000000)">
        <g id="Group-4" transform="translate(940.000000, 27.000000)" fill="#FFFFFF">
            <path d="M16.767767,20.6557329 C13.6591811,20.4307675 11.2071068,17.8375265 11.2071068,14.6715729 C11.2071068,11.3578644 13.8933983,8.67157288 17.2071068,8.67157288 C20.5208153,8.67157288 23.2071068,11.3578644 23.2071068,14.6715729 C23.2071068,17.6233489 21.0755773,20.0772796 18.267767,20.5781163 L18.267767,25.3535534 C18.267767,25.767767 17.9319805,26.1035534 17.517767,26.1035534 C17.1035534,26.1035534 16.767767,25.767767 16.767767,25.3535534 L16.767767,20.6557329 Z M17.2071068,19.1715729 C19.6923882,19.1715729 21.7071068,17.1568542 21.7071068,14.6715729 C21.7071068,12.1862915 19.6923882,10.1715729 17.2071068,10.1715729 C14.7218254,10.1715729 12.7071068,12.1862915 12.7071068,14.6715729 C12.7071068,17.1568542 14.7218254,19.1715729 17.2071068,19.1715729 Z" id="search" transform="translate(17.207107, 17.387563) rotate(-45.000000) translate(-17.207107, -17.387563) "></path>
        </g>
    </g>
</svg>